<svg width="28" height="28" viewBox="0 0 28 28" fill="none" xmlns="http://www.w3.org/2000/svg">
<g filter="url(#filter0_d)">
<path fill-rule="evenodd" clip-rule="evenodd" d="M4 8.5C4 3.80557 7.80557 0 12.5 0C17.1944 0 21 3.80557 21 8.5C21 10.3205 20.4277 12.0073 19.4532 13.3903L22.8922 16.827C23.2831 17.2176 23.2831 17.8511 22.8922 18.2417L22.2444 18.8891C21.8539 19.2793 21.2212 19.2793 20.8307 18.8891L17.3915 15.4523C16.0082 16.4274 14.321 17 12.5 17C7.80557 17 4 13.1944 4 8.5ZM12.5 14.5714C9.15217 14.5714 6.42853 11.8478 6.42853 8.5C6.42853 5.15222 9.15217 2.42857 12.5 2.42857C15.8477 2.42857 18.5714 5.15222 18.5714 8.5C18.5714 11.8478 15.8477 14.5714 12.5 14.5714Z" fill="#222222"/>
</g>
<defs>
<filter id="filter0_d" x="0" y="0" width="28" height="28" filterUnits="userSpaceOnUse" color-interpolation-filters="sRGB">
<feFlood flood-opacity="0" result="BackgroundImageFix"/>
<feColorMatrix in="SourceAlpha" type="matrix" values="0 0 0 0 0 0 0 0 0 0 0 0 0 0 0 0 0 0 127 0"/>
<feOffset dy="4"/>
<feGaussianBlur stdDeviation="2"/>
<feColorMatrix type="matrix" values="0 0 0 0 0 0 0 0 0 0 0 0 0 0 0 0 0 0 0.25 0"/>
<feBlend mode="normal" in2="BackgroundImageFix" result="effect1_dropShadow"/>
<feBlend mode="normal" in="SourceGraphic" in2="effect1_dropShadow" result="shape"/>
</filter>
</defs>
</svg>
